<?xml version="1.0" encoding="utf-8"?>
<!-- Generator: Adobe Illustrator 23.0.4, SVG Export Plug-In . SVG Version: 6.00 Build 0)  -->
<svg version="1.1" id="Слой_1" xmlns="http://www.w3.org/2000/svg" xmlns:xlink="http://www.w3.org/1999/xlink" x="0px" y="0px"
	 viewBox="0 0 190.94 139.42" style="enable-background:new 0 0 190.94 139.42;" xml:space="preserve">
<style type="text/css">
	.st0{fill:#E6E6E6;}
	.st1{fill:none;}
	.st2{fill-rule:evenodd;clip-rule:evenodd;}
	.st3{fill:#FFFFFF;}
	.st4{fill:#FFFFFF;stroke:#000000;stroke-miterlimit:10;}
	.st5{fill:none;stroke:#000000;stroke-width:5;stroke-miterlimit:10;}
</style>
<g>
	<rect x="40.44" y="38.92" class="st0" width="150" height="100"/>
	<g>
		<g>
			<g>
				<g>
					<g>
						<rect x="32.95" y="117.25" class="st1" width="15" height="14.17"/>
					</g>
					<rect x="39.91" y="118.3" class="st2" width="1.5" height="2.63"/>
					<rect x="39.91" y="123.02" class="st2" width="1.5" height="2.63"/>
					<rect x="39.91" y="127.72" class="st2" width="1.5" height="2.63"/>
				</g>
			</g>
			<g>
				<g>
					<g>
						<rect x="32.95" y="103.09" class="st1" width="15" height="14.17"/>
					</g>
					<rect x="39.91" y="104.13" class="st2" width="1.5" height="2.63"/>
					<rect x="39.91" y="108.85" class="st2" width="1.5" height="2.63"/>
					<rect x="39.91" y="113.55" class="st2" width="1.5" height="2.63"/>
				</g>
			</g>
			<g>
				<g>
					<g>
						<rect x="32.95" y="88.92" class="st1" width="15" height="14.17"/>
					</g>
					<rect x="39.91" y="89.97" class="st2" width="1.5" height="2.63"/>
					<rect x="39.91" y="94.68" class="st2" width="1.5" height="2.63"/>
					<rect x="39.91" y="99.38" class="st2" width="1.5" height="2.63"/>
				</g>
			</g>
			<g>
				<g>
					<g>
						<rect x="32.95" y="74.75" class="st1" width="15" height="14.17"/>
					</g>
					<rect x="39.91" y="75.8" class="st2" width="1.5" height="2.63"/>
					<rect x="39.91" y="80.52" class="st2" width="1.5" height="2.63"/>
					<rect x="39.91" y="85.22" class="st2" width="1.5" height="2.63"/>
				</g>
			</g>
			<g>
				<g>
					<g>
						<rect x="32.95" y="60.59" class="st1" width="15" height="14.17"/>
					</g>
					<rect x="39.91" y="61.63" class="st2" width="1.5" height="2.63"/>
					<rect x="39.91" y="66.35" class="st2" width="1.5" height="2.63"/>
					<rect x="39.91" y="71.05" class="st2" width="1.5" height="2.63"/>
				</g>
			</g>
			<g>
				<g>
					<g>
						<rect x="32.95" y="46.42" class="st1" width="15" height="14.17"/>
					</g>
					<rect x="39.91" y="47.47" class="st2" width="1.5" height="2.63"/>
					<rect x="39.91" y="52.18" class="st2" width="1.5" height="2.63"/>
					<rect x="39.91" y="56.88" class="st2" width="1.5" height="2.63"/>
				</g>
			</g>
			<g>
				<g>
					<g>
						<rect x="47.94" y="31.42" class="st1" width="13.5" height="15"/>
					</g>
					<rect x="57.94" y="38.39" class="st2" width="2.51" height="1.5"/>
					<rect x="53.45" y="38.39" class="st2" width="2.51" height="1.5"/>
					<rect x="48.97" y="38.39" class="st2" width="2.51" height="1.5"/>
				</g>
			</g>
			<g>
				<g>
					<g>
						<rect x="61.44" y="31.42" class="st1" width="13.5" height="15"/>
					</g>
					<rect x="71.44" y="38.39" class="st2" width="2.51" height="1.5"/>
					<rect x="66.95" y="38.39" class="st2" width="2.51" height="1.5"/>
					<rect x="62.47" y="38.39" class="st2" width="2.51" height="1.5"/>
				</g>
			</g>
			<g>
				<g>
					<g>
						<rect x="74.94" y="31.42" class="st1" width="13.5" height="15"/>
					</g>
					<rect x="84.94" y="38.39" class="st2" width="2.51" height="1.5"/>
					<rect x="80.45" y="38.39" class="st2" width="2.51" height="1.5"/>
					<rect x="75.97" y="38.39" class="st2" width="2.51" height="1.5"/>
				</g>
			</g>
			<g>
				<g>
					<g>
						<rect x="88.44" y="31.42" class="st1" width="13.5" height="15"/>
					</g>
					<rect x="98.44" y="38.39" class="st2" width="2.51" height="1.5"/>
					<rect x="93.95" y="38.39" class="st2" width="2.51" height="1.5"/>
					<rect x="89.47" y="38.39" class="st2" width="2.51" height="1.5"/>
				</g>
			</g>
			<g>
				<g>
					<g>
						<rect x="101.94" y="31.42" class="st1" width="13.5" height="15"/>
					</g>
					<rect x="111.94" y="38.39" class="st2" width="2.51" height="1.5"/>
					<rect x="107.45" y="38.39" class="st2" width="2.51" height="1.5"/>
					<rect x="102.97" y="38.39" class="st2" width="2.51" height="1.5"/>
				</g>
			</g>
			<g>
				<g>
					<g>
						<rect x="115.44" y="31.42" class="st1" width="13.5" height="15"/>
					</g>
					<rect x="125.44" y="38.39" class="st2" width="2.51" height="1.5"/>
					<rect x="120.95" y="38.39" class="st2" width="2.51" height="1.5"/>
					<rect x="116.47" y="38.39" class="st2" width="2.51" height="1.5"/>
				</g>
			</g>
			<g>
				<g>
					<g>
						<rect x="128.94" y="31.42" class="st1" width="13.5" height="15"/>
					</g>
					<rect x="138.94" y="38.39" class="st2" width="2.51" height="1.5"/>
					<rect x="134.45" y="38.39" class="st2" width="2.51" height="1.5"/>
					<rect x="129.97" y="38.39" class="st2" width="2.51" height="1.5"/>
				</g>
			</g>
			<g>
				<g>
					<g>
						<rect x="142.44" y="31.42" class="st1" width="13.5" height="15"/>
					</g>
					<rect x="152.44" y="38.39" class="st2" width="2.51" height="1.5"/>
					<rect x="147.95" y="38.39" class="st2" width="2.51" height="1.5"/>
					<rect x="143.47" y="38.39" class="st2" width="2.51" height="1.5"/>
				</g>
			</g>
			<g>
				<g>
					<g>
						<rect x="155.94" y="31.42" class="st1" width="13.5" height="15"/>
					</g>
					<rect x="165.94" y="38.39" class="st2" width="2.51" height="1.5"/>
					<rect x="161.45" y="38.39" class="st2" width="2.51" height="1.5"/>
					<rect x="156.97" y="38.39" class="st2" width="2.51" height="1.5"/>
				</g>
			</g>
			<g>
				<g>
					<g>
						<rect x="169.45" y="31.42" class="st1" width="13.5" height="15"/>
					</g>
					<rect x="179.44" y="38.39" class="st2" width="2.51" height="1.5"/>
					<rect x="174.95" y="38.39" class="st2" width="2.51" height="1.5"/>
					<rect x="170.47" y="38.39" class="st2" width="2.51" height="1.5"/>
				</g>
			</g>
			<g>
				<g>
					<g>
						<rect x="182.95" y="46.42" class="st1" width="15" height="14.17"/>
					</g>
					<rect x="189.47" y="56.91" class="st2" width="1.5" height="2.63"/>
					<rect x="189.47" y="52.19" class="st2" width="1.5" height="2.63"/>
					<rect x="189.47" y="47.49" class="st2" width="1.5" height="2.63"/>
				</g>
			</g>
			<g>
				<g>
					<g>
						<rect x="182.95" y="60.59" class="st1" width="15" height="14.17"/>
					</g>
					<rect x="189.47" y="71.08" class="st2" width="1.5" height="2.63"/>
					<rect x="189.47" y="66.36" class="st2" width="1.5" height="2.63"/>
					<rect x="189.47" y="61.66" class="st2" width="1.5" height="2.63"/>
				</g>
			</g>
			<g>
				<g>
					<g>
						<rect x="182.95" y="74.75" class="st1" width="15" height="14.17"/>
					</g>
					<rect x="189.47" y="85.24" class="st2" width="1.5" height="2.63"/>
					<rect x="189.47" y="80.53" class="st2" width="1.5" height="2.63"/>
					<rect x="189.47" y="75.83" class="st2" width="1.5" height="2.63"/>
				</g>
			</g>
			<g>
				<g>
					<g>
						<rect x="182.95" y="88.92" class="st1" width="15" height="14.17"/>
					</g>
					<rect x="189.47" y="99.41" class="st2" width="1.5" height="2.63"/>
					<rect x="189.47" y="94.7" class="st2" width="1.5" height="2.63"/>
					<rect x="189.47" y="89.99" class="st2" width="1.5" height="2.63"/>
				</g>
			</g>
			<g>
				<g>
					<g>
						<rect x="182.95" y="103.09" class="st1" width="15" height="14.17"/>
					</g>
					<rect x="189.47" y="113.58" class="st2" width="1.5" height="2.63"/>
					<rect x="189.47" y="108.86" class="st2" width="1.5" height="2.63"/>
					<rect x="189.47" y="104.16" class="st2" width="1.5" height="2.63"/>
				</g>
			</g>
			<g>
				<g>
					<g>
						<rect x="182.95" y="117.25" class="st1" width="15" height="14.17"/>
					</g>
					<rect x="189.47" y="127.75" class="st2" width="1.5" height="2.63"/>
					<rect x="189.47" y="123.03" class="st2" width="1.5" height="2.63"/>
					<rect x="189.47" y="118.33" class="st2" width="1.5" height="2.63"/>
				</g>
			</g>
			<g>
				<g>
					<g>
						<rect x="169.45" y="131.42" class="st1" width="13.5" height="15"/>
					</g>
					<rect x="170.44" y="137.95" class="st2" width="2.51" height="1.5"/>
					<rect x="174.94" y="137.95" class="st2" width="2.51" height="1.5"/>
					<rect x="179.42" y="137.95" class="st2" width="2.51" height="1.5"/>
				</g>
			</g>
			<g>
				<g>
					<g>
						<rect x="155.94" y="131.42" class="st1" width="13.5" height="15"/>
					</g>
					<rect x="156.94" y="137.95" class="st2" width="2.51" height="1.5"/>
					<rect x="161.44" y="137.95" class="st2" width="2.51" height="1.5"/>
					<rect x="165.92" y="137.95" class="st2" width="2.51" height="1.5"/>
				</g>
			</g>
			<g>
				<g>
					<g>
						<rect x="142.44" y="131.42" class="st1" width="13.5" height="15"/>
					</g>
					<rect x="143.44" y="137.95" class="st2" width="2.51" height="1.5"/>
					<rect x="147.94" y="137.95" class="st2" width="2.51" height="1.5"/>
					<rect x="152.42" y="137.95" class="st2" width="2.51" height="1.5"/>
				</g>
			</g>
			<g>
				<g>
					<g>
						<rect x="128.94" y="131.42" class="st1" width="13.5" height="15"/>
					</g>
					<rect x="129.94" y="137.95" class="st2" width="2.51" height="1.5"/>
					<rect x="134.44" y="137.95" class="st2" width="2.51" height="1.5"/>
					<rect x="138.92" y="137.95" class="st2" width="2.51" height="1.5"/>
				</g>
			</g>
			<g>
				<g>
					<g>
						<rect x="115.44" y="131.42" class="st1" width="13.5" height="15"/>
					</g>
					<rect x="116.44" y="137.95" class="st2" width="2.51" height="1.5"/>
					<rect x="120.94" y="137.95" class="st2" width="2.51" height="1.5"/>
					<rect x="125.42" y="137.95" class="st2" width="2.51" height="1.5"/>
				</g>
			</g>
			<g>
				<g>
					<g>
						<rect x="101.94" y="131.42" class="st1" width="13.5" height="15"/>
					</g>
					<rect x="102.94" y="137.95" class="st2" width="2.51" height="1.5"/>
					<rect x="107.44" y="137.95" class="st2" width="2.51" height="1.5"/>
					<rect x="111.92" y="137.95" class="st2" width="2.51" height="1.5"/>
				</g>
			</g>
			<g>
				<g>
					<g>
						<rect x="88.44" y="131.42" class="st1" width="13.5" height="15"/>
					</g>
					<rect x="89.44" y="137.95" class="st2" width="2.51" height="1.5"/>
					<rect x="93.94" y="137.95" class="st2" width="2.51" height="1.5"/>
					<rect x="98.42" y="137.95" class="st2" width="2.51" height="1.5"/>
				</g>
			</g>
			<g>
				<g>
					<g>
						<rect x="74.94" y="131.42" class="st1" width="13.5" height="15"/>
					</g>
					<rect x="75.94" y="137.95" class="st2" width="2.51" height="1.5"/>
					<rect x="80.44" y="137.95" class="st2" width="2.51" height="1.5"/>
					<rect x="84.92" y="137.95" class="st2" width="2.51" height="1.5"/>
				</g>
			</g>
			<g>
				<g>
					<g>
						<rect x="61.44" y="131.42" class="st1" width="13.5" height="15"/>
					</g>
					<rect x="62.44" y="137.95" class="st2" width="2.51" height="1.5"/>
					<rect x="66.94" y="137.95" class="st2" width="2.51" height="1.5"/>
					<rect x="71.42" y="137.95" class="st2" width="2.51" height="1.5"/>
				</g>
			</g>
			<g>
				<g>
					<g>
						<rect x="47.94" y="131.42" class="st1" width="13.5" height="15"/>
					</g>
					<rect x="48.94" y="137.95" class="st2" width="2.51" height="1.5"/>
					<rect x="53.44" y="137.95" class="st2" width="2.51" height="1.5"/>
					<rect x="57.92" y="137.95" class="st2" width="2.51" height="1.5"/>
				</g>
			</g>
			<g>
				<rect x="39.81" y="42.89" class="st2" width="1.51" height="2.5"/>
				<polygon class="st2" points="39.81,38.39 39.81,40.89 41.31,40.89 41.31,39.89 42.31,39.89 42.31,38.39 				"/>
				<rect x="44.31" y="38.39" class="st2" width="2.5" height="1.5"/>
			</g>
			<g>
				<rect x="183.98" y="38.28" class="st2" width="2.5" height="1.51"/>
				<polygon class="st2" points="190.98,38.28 188.48,38.28 188.48,39.79 189.48,39.79 189.48,40.78 190.98,40.78 				"/>
				<rect x="189.48" y="42.78" class="st2" width="1.5" height="2.5"/>
			</g>
			<g>
				<rect x="189.58" y="132.45" class="st2" width="1.51" height="2.5"/>
				<polygon class="st2" points="191.08,139.45 191.08,136.95 189.58,136.95 189.58,137.95 188.58,137.95 188.58,139.45 				"/>
				<rect x="184.08" y="137.95" class="st2" width="2.5" height="1.5"/>
			</g>
			<g>
				<rect x="44.41" y="138.05" class="st2" width="2.5" height="1.51"/>
				<polygon class="st2" points="39.91,139.56 42.41,139.56 42.41,138.05 41.41,138.05 41.41,137.06 39.91,137.06 				"/>
				<rect x="39.91" y="132.56" class="st2" width="1.5" height="2.5"/>
			</g>
		</g>
	</g>
</g>
<g>
	<g>
		<polyline class="st3" points="152.1,31.1 152.1,102.1 2.1,102.1 2.1,2.1 123.1,2.1 		"/>
		<g>
			<path d="M150,31.1c0,23.67,0,47.33,0,71c0.7-0.7,1.4-1.4,2.1-2.1c-43.8,0-87.61,0-131.41,0c-6.2,0-12.39,0-18.59,0
				c0.7,0.7,1.4,1.4,2.1,2.1c0-29.2,0-58.41,0-87.61c0-4.13,0-8.26,0-12.39C3.5,2.8,2.8,3.5,2.1,4.2c35.34,0,70.69,0,106.03,0
				c4.99,0,9.98,0,14.97,0c2.7,0,2.71-4.2,0-4.2C87.76,0,52.41,0,17.07,0C12.08,0,7.09,0,2.1,0C0.96,0,0,0.96,0,2.1
				c0,29.2,0,58.41,0,87.61c0,4.13,0,8.26,0,12.39c0,1.14,0.96,2.1,2.1,2.1c43.8,0,87.61,0,131.41,0c6.2,0,12.39,0,18.59,0
				c1.14,0,2.1-0.96,2.1-2.1c0-23.67,0-47.33,0-71C154.2,28.4,150,28.39,150,31.1L150,31.1z"/>
		</g>
	</g>
	<g>
		<polyline class="st3" points="151.1,32.1 122.1,32.1 122.1,3.1 		"/>
		<g>
			<path d="M151.1,30c-9.67,0-19.33,0-29,0c0.7,0.7,1.4,1.4,2.1,2.1c0-9.67,0-19.33,0-29c0-2.7-4.2-2.71-4.2,0c0,9.67,0,19.33,0,29
				c0,1.14,0.96,2.1,2.1,2.1c9.67,0,19.33,0,29,0C153.8,34.2,153.81,30,151.1,30L151.1,30z"/>
		</g>
	</g>
	<g>
		<line class="st3" x1="123.5" y1="2.5" x2="151.8" y2="30.8"/>
		<g>
			<path d="M122.02,3.98c9.43,9.43,18.87,18.87,28.3,28.3c1.91,1.91,4.88-1.06,2.97-2.97c-9.43-9.43-18.87-18.87-28.3-28.3
				C123.07-0.9,120.1,2.07,122.02,3.98L122.02,3.98z"/>
		</g>
	</g>
</g>
<g>
	<g>
		<path class="st4" d="M26.2,55.84c-0.01,0.25-0.08,0.46-0.2,0.62c-0.12,0.16-0.27,0.25-0.44,0.29s-0.34,0-0.52-0.09
			c-0.17-0.09-0.32-0.25-0.44-0.48c-0.08-0.62-0.19-1.24-0.34-1.84c-0.15-0.6-0.32-1.2-0.52-1.8l-5.27,0.04
			c-0.03,0-0.06,0-0.09-0.01c-0.03-0.01-0.06-0.01-0.09-0.01c-0.33,1.13-0.63,2.29-0.89,3.5c-0.11,0.28-0.26,0.46-0.46,0.56
			c-0.2,0.09-0.39,0.11-0.57,0.06c-0.18-0.05-0.33-0.17-0.44-0.36c-0.11-0.19-0.14-0.42-0.09-0.72c0.44-1.92,0.96-3.8,1.58-5.64
			c0.62-1.84,1.39-3.63,2.32-5.38c0.08-0.25,0.27-0.41,0.56-0.48c0.15-0.05,0.29-0.06,0.42-0.03s0.25,0.1,0.34,0.19
			c0.01,0,0.02,0,0.02,0.01c0,0.01,0.01,0.01,0.02,0.01c0.69,0.66,1.27,1.41,1.73,2.25c0.46,0.84,0.89,1.68,1.27,2.55
			c0.15,0.31,0.28,0.61,0.41,0.92c0.13,0.31,0.25,0.61,0.37,0.92l1.05-0.02c0.25,0.08,0.44,0.2,0.56,0.36
			c0.12,0.16,0.18,0.32,0.17,0.49c-0.01,0.17-0.08,0.33-0.21,0.48c-0.13,0.15-0.33,0.26-0.58,0.31h-0.42
			c0.17,0.54,0.32,1.09,0.45,1.64C26.04,54.71,26.13,55.27,26.2,55.84z M20.71,46.28c-0.37,0.76-0.71,1.52-1.02,2.31
			c-0.31,0.78-0.6,1.57-0.87,2.37l4.34-0.04c-0.17-0.4-0.35-0.79-0.53-1.17c-0.18-0.38-0.36-0.77-0.55-1.15
			c-0.21-0.38-0.42-0.78-0.64-1.17C21.24,47.01,20.99,46.63,20.71,46.28z"/>
		<path class="st4" d="M35.02,54.35c0.22-0.19,0.45-0.27,0.67-0.26c0.22,0.01,0.39,0.09,0.53,0.22c0.13,0.13,0.21,0.31,0.22,0.53
			c0.01,0.22-0.07,0.44-0.26,0.67c-0.44,0.48-0.95,0.82-1.54,1.01c-0.59,0.2-1.17,0.25-1.75,0.17c-0.58-0.09-1.11-0.31-1.6-0.69
			c-0.49-0.37-0.86-0.88-1.09-1.51c-0.15-0.36-0.25-0.74-0.32-1.13c-0.07-0.4-0.09-0.79-0.06-1.17c0.04-0.64,0.19-1.28,0.45-1.92
			s0.61-1.2,1.05-1.68s0.97-0.83,1.57-1.04c0.6-0.22,1.26-0.22,1.98,0.01c0.36,0.12,0.68,0.27,0.97,0.44
			c0.29,0.17,0.57,0.39,0.83,0.66c0.15,0.21,0.22,0.42,0.22,0.62s-0.06,0.36-0.17,0.49s-0.27,0.21-0.46,0.25
			c-0.19,0.04-0.41,0-0.65-0.12c-0.44-0.44-0.86-0.7-1.27-0.79s-0.79-0.05-1.14,0.11s-0.66,0.41-0.93,0.77
			c-0.27,0.35-0.48,0.75-0.63,1.19c-0.15,0.44-0.22,0.91-0.22,1.39c0,0.48,0.09,0.93,0.28,1.34c0.16,0.37,0.38,0.66,0.65,0.85
			c0.27,0.2,0.56,0.32,0.87,0.35c0.3,0.03,0.62-0.01,0.95-0.14C34.48,54.83,34.77,54.63,35.02,54.35z"/>
		<path class="st4" d="M45.69,54.35c0.23-0.19,0.45-0.27,0.67-0.26c0.22,0.01,0.39,0.09,0.53,0.22c0.13,0.13,0.21,0.31,0.22,0.53
			c0.01,0.22-0.07,0.44-0.26,0.67c-0.44,0.48-0.95,0.82-1.54,1.01c-0.59,0.2-1.17,0.25-1.75,0.17c-0.58-0.09-1.11-0.31-1.6-0.69
			s-0.86-0.88-1.09-1.51c-0.15-0.36-0.25-0.74-0.32-1.13s-0.09-0.79-0.06-1.17c0.04-0.64,0.19-1.28,0.45-1.92
			c0.26-0.64,0.61-1.2,1.05-1.68s0.97-0.83,1.57-1.04c0.6-0.22,1.26-0.22,1.98,0.01c0.36,0.12,0.68,0.27,0.97,0.44
			s0.57,0.39,0.84,0.66c0.15,0.21,0.22,0.42,0.22,0.62s-0.06,0.36-0.17,0.49c-0.11,0.13-0.27,0.21-0.46,0.25
			c-0.19,0.04-0.41,0-0.65-0.12c-0.44-0.44-0.86-0.7-1.27-0.79c-0.41-0.09-0.79-0.05-1.14,0.11c-0.35,0.16-0.66,0.41-0.94,0.77
			c-0.27,0.35-0.48,0.75-0.63,1.19c-0.15,0.44-0.22,0.91-0.22,1.39c0,0.48,0.09,0.93,0.28,1.34c0.16,0.37,0.37,0.66,0.65,0.85
			c0.27,0.2,0.56,0.32,0.87,0.35c0.3,0.03,0.62-0.01,0.94-0.14C45.15,54.83,45.44,54.63,45.69,54.35z"/>
		<path class="st4" d="M64.76,53.56c0.39-0.16,0.73-0.16,1.03-0.01c0.3,0.15,0.52,0.38,0.66,0.68c0.15,0.3,0.18,0.63,0.12,0.98
			c-0.07,0.35-0.28,0.63-0.63,0.83c-0.6,0.35-1.23,0.65-1.89,0.91c-0.66,0.26-1.31,0.41-1.96,0.45c-0.65,0.05-1.29-0.03-1.92-0.21
			c-0.63-0.19-1.25-0.53-1.84-1.04c-0.71-0.61-1.26-1.39-1.64-2.36c-0.38-0.97-0.58-1.97-0.6-3.01c-0.02-1.04,0.16-2.04,0.51-3.01
			c0.36-0.97,0.91-1.76,1.65-2.39c0.78-0.66,1.63-1.18,2.55-1.57c0.92-0.4,1.86-0.54,2.79-0.41c0.47,0.06,0.89,0.27,1.25,0.62
			c0.37,0.36,0.67,0.8,0.88,1.33c0.22,0.53,0.32,1.11,0.3,1.74c-0.01,0.64-0.17,1.26-0.48,1.83c-0.34,0.65-0.81,1.19-1.39,1.63
			c-0.58,0.44-1.19,0.79-1.82,1.07c-0.63,0.28-1.24,0.5-1.84,0.67c-0.6,0.17-1.11,0.32-1.55,0.47c-0.19,0.05-0.37,0.06-0.54,0.01
			c0.26,0.65,0.63,1.19,1.12,1.62c0.49,0.44,1.1,0.66,1.81,0.66c0.58,0.01,1.16-0.15,1.76-0.48C63.68,54.24,64.24,53.9,64.76,53.56z
			 M59.84,46.79c-0.61,0.42-1.07,0.97-1.37,1.67c-0.3,0.7-0.46,1.42-0.46,2.18c0.11-0.1,0.23-0.18,0.35-0.24
			c0.28-0.1,0.57-0.21,0.86-0.32c0.29-0.11,0.59-0.23,0.89-0.33c0.19-0.07,0.45-0.16,0.79-0.3c0.34-0.13,0.69-0.29,1.06-0.47
			c0.37-0.18,0.72-0.4,1.04-0.64c0.32-0.24,0.54-0.51,0.66-0.8c0.08-0.71-0.04-1.18-0.34-1.41c-0.3-0.23-0.66-0.32-1.09-0.28
			c-0.43,0.04-0.86,0.16-1.32,0.37C60.49,46.42,60.13,46.61,59.84,46.79z"/>
		<path class="st4" d="M71.25,55.41c-0.23-0.43-0.31-0.82-0.26-1.16s0.2-0.62,0.42-0.82c0.22-0.2,0.52-0.3,0.88-0.29
			c0.37,0.01,0.75,0.15,1.15,0.43c0.58,0.72,1.27,1.27,2.05,1.66c0.79,0.38,1.62,0.6,2.5,0.65l0.77-0.23
			c0.2-0.15,0.33-0.24,0.41-0.29c0.07-0.05,0.13-0.09,0.17-0.13c0.04-0.04,0.09-0.09,0.15-0.16c0.06-0.07,0.17-0.21,0.32-0.4
			c0.05-0.1,0.09-0.19,0.12-0.29c0.03-0.1,0.06-0.21,0.12-0.33c0-0.12,0.01-0.23,0.03-0.33c0.01-0.1,0.02-0.21,0.03-0.33l-0.2-0.66
			c-0.07-0.1-0.15-0.2-0.23-0.29c-0.08-0.1-0.16-0.2-0.23-0.3c-0.61-0.4-1.23-0.68-1.86-0.86c-0.63-0.18-1.25-0.36-1.85-0.55
			c-0.6-0.19-1.19-0.44-1.76-0.74c-0.56-0.3-1.09-0.79-1.57-1.46c-0.45-0.58-0.68-1.25-0.69-2c-0.01-0.75,0.14-1.45,0.44-2.11
			c0.3-0.66,0.72-1.23,1.27-1.73c0.54-0.49,1.15-0.79,1.84-0.92c0.98-0.2,1.98-0.21,2.99-0.02c1.01,0.21,1.95,0.55,2.82,1.02
			c0.42,0.3,0.67,0.63,0.77,0.99c0.09,0.36,0.07,0.67-0.08,0.92c-0.15,0.25-0.4,0.43-0.74,0.52c-0.35,0.09-0.76,0.02-1.24-0.23
			c-0.58-0.32-1.19-0.53-1.82-0.64c-0.64-0.1-1.29-0.11-1.95-0.03c-0.07,0.05-0.15,0.08-0.24,0.1c-0.09,0.02-0.16,0.06-0.24,0.1
			c-0.27,0.27-0.47,0.54-0.6,0.81c-0.13,0.27-0.18,0.6-0.16,1.01c0.02,0.1,0.09,0.24,0.18,0.43c0.07,0.1,0.15,0.18,0.22,0.25
			c0.08,0.07,0.15,0.16,0.23,0.26c0.6,0.32,1.27,0.58,1.98,0.77c0.72,0.19,1.41,0.41,2.07,0.66c0.65,0.25,1.25,0.56,1.79,0.95
			c0.53,0.39,0.94,0.94,1.23,1.67c0.5,1.36,0.54,2.6,0.13,3.73c-0.43,1.11-1.22,2.06-2.4,2.85c-0.31,0.19-0.65,0.35-1.03,0.49
			c-0.38,0.13-0.73,0.21-1.06,0.21c-1.28,0.03-2.54-0.22-3.8-0.78C73.08,57.26,72.05,56.46,71.25,55.41z"/>
		<path class="st4" d="M87.51,54.94c-0.14-0.38-0.17-0.72-0.1-1.04c0.07-0.32,0.19-0.58,0.37-0.77c0.18-0.19,0.4-0.3,0.66-0.31
			c0.26-0.01,0.52,0.1,0.79,0.32c0.36,0.59,0.79,1.03,1.29,1.33c0.5,0.29,1.03,0.44,1.6,0.46l0.51-0.21
			c0.13-0.13,0.22-0.21,0.27-0.25c0.05-0.04,0.09-0.08,0.11-0.11c0.02-0.03,0.06-0.08,0.1-0.14c0.04-0.06,0.11-0.17,0.22-0.34
			c0.03-0.08,0.06-0.16,0.08-0.24c0.02-0.08,0.04-0.17,0.08-0.27c0-0.1,0.01-0.19,0.02-0.27c0.01-0.08,0.02-0.17,0.02-0.27
			l-0.13-0.53c-0.05-0.08-0.1-0.16-0.15-0.24c-0.05-0.08-0.1-0.16-0.15-0.24c-0.39-0.31-0.78-0.54-1.17-0.68
			c-0.39-0.14-0.78-0.29-1.16-0.44c-0.38-0.16-0.76-0.36-1.13-0.62c-0.38-0.26-0.75-0.69-1.1-1.28c-0.35-0.53-0.56-1.15-0.62-1.82
			c-0.07-0.68-0.02-1.31,0.13-1.89c0.15-0.57,0.4-1.06,0.75-1.47c0.34-0.4,0.75-0.63,1.23-0.69c0.68-0.11,1.39-0.06,2.12,0.16
			c0.73,0.22,1.42,0.54,2.07,0.96c0.31,0.26,0.5,0.56,0.57,0.87c0.06,0.32,0.04,0.59-0.08,0.81c-0.11,0.23-0.3,0.38-0.54,0.46
			c-0.25,0.08-0.54,0.02-0.87-0.19c-0.4-0.28-0.81-0.47-1.25-0.59c-0.43-0.11-0.87-0.15-1.3-0.11c-0.05,0.04-0.1,0.06-0.15,0.08
			s-0.11,0.04-0.15,0.08c-0.16,0.23-0.28,0.45-0.35,0.68c-0.07,0.23-0.08,0.52-0.05,0.87c0.02,0.08,0.07,0.21,0.14,0.38
			c0.05,0.09,0.11,0.16,0.16,0.23c0.05,0.06,0.1,0.14,0.16,0.23c0.4,0.29,0.83,0.52,1.29,0.69c0.46,0.17,0.9,0.35,1.33,0.56
			c0.43,0.2,0.83,0.45,1.2,0.76c0.37,0.31,0.66,0.75,0.87,1.34c0.38,1.1,0.43,2.12,0.13,3.05c-0.3,0.93-0.88,1.74-1.73,2.42
			c-0.22,0.17-0.47,0.32-0.73,0.44c-0.27,0.13-0.52,0.2-0.75,0.22c-0.88,0.08-1.74-0.07-2.57-0.47
			C88.69,56.46,88.01,55.82,87.51,54.94z"/>
		<path class="st4" d="M104.12,45.04c0-0.29,0.09-0.54,0.28-0.75s0.41-0.31,0.68-0.31c0.26,0,0.49,0.1,0.69,0.31
			s0.29,0.45,0.29,0.75c0,0.28-0.1,0.52-0.29,0.73c-0.19,0.21-0.42,0.31-0.69,0.31c-0.27,0-0.49-0.1-0.68-0.31
			C104.21,45.56,104.12,45.32,104.12,45.04z M105.95,55.86c-0.01,0.31-0.1,0.53-0.27,0.69c-0.17,0.15-0.35,0.23-0.55,0.23
			c-0.19,0-0.36-0.07-0.52-0.21c-0.16-0.14-0.26-0.35-0.3-0.65c-0.01-1.25-0.02-2.52-0.03-3.82c-0.01-1.3-0.02-2.57-0.03-3.82
			c0.07-0.27,0.17-0.46,0.32-0.6c0.15-0.13,0.31-0.2,0.5-0.2c0.17,0,0.33,0.06,0.49,0.18c0.15,0.12,0.26,0.31,0.33,0.56
			c0.01,1.25,0.02,2.52,0.03,3.82S105.93,54.62,105.95,55.86z"/>
		<path class="st4" d="M111.86,56.18c-0.23,0.13-0.44,0.19-0.64,0.17c-0.2-0.02-0.36-0.09-0.48-0.21c-0.12-0.12-0.19-0.28-0.21-0.48
			c-0.02-0.2,0.04-0.41,0.17-0.64l0.06-0.06V44.63c0.05-0.25,0.16-0.44,0.31-0.58s0.31-0.2,0.48-0.21c0.17-0.01,0.33,0.05,0.49,0.17
			c0.16,0.12,0.28,0.31,0.36,0.56v4.73c0.29-0.28,0.6-0.5,0.93-0.66c0.3-0.17,0.59-0.29,0.87-0.37c0.27-0.07,0.58-0.13,0.92-0.17
			c0.34-0.05,0.67-0.02,0.97,0.1c0.3,0.12,0.6,0.27,0.89,0.44c0.38,0.23,0.68,0.54,0.88,0.94c0.2,0.4,0.34,0.83,0.42,1.28
			c0.08,0.46,0.11,0.92,0.1,1.39c-0.01,0.47-0.05,0.89-0.12,1.26c-0.03,0.21-0.09,0.41-0.18,0.61c-0.09,0.19-0.19,0.38-0.3,0.57
			c-0.19,0.37-0.44,0.69-0.76,0.94c-0.32,0.26-0.67,0.46-1.06,0.62c-0.39,0.15-0.8,0.26-1.21,0.32c-0.42,0.06-0.81,0.08-1.18,0.05
			c-0.3-0.03-0.6-0.07-0.88-0.14c-0.28-0.07-0.55-0.18-0.82-0.34C111.88,56.15,111.88,56.17,111.86,56.18z M112.4,51.77v2.78
			c0.04,0.03,0.11,0.07,0.22,0.12c0.03,0.03,0.05,0.05,0.08,0.06s0.05,0.03,0.08,0.06c0.69,0.27,1.35,0.31,1.97,0.14
			s1.17-0.54,1.65-1.09c0.13-0.32,0.23-0.61,0.29-0.89c0.06-0.27,0.09-0.54,0.09-0.82c0-0.27-0.03-0.55-0.08-0.83
			c-0.05-0.28-0.14-0.58-0.26-0.9c-0.07-0.07-0.12-0.14-0.17-0.21c-0.05-0.07-0.1-0.14-0.17-0.21c-0.07-0.03-0.13-0.06-0.19-0.1
			c-0.06-0.04-0.12-0.07-0.19-0.1c-0.07-0.01-0.14-0.03-0.22-0.04c-0.08-0.01-0.15-0.03-0.22-0.04c-0.64,0.11-1.16,0.32-1.57,0.65
			s-0.8,0.74-1.15,1.24L112.4,51.77z"/>
		<path class="st4" d="M124.48,55.55c0.24,0.17,0.38,0.37,0.42,0.59s0.01,0.41-0.09,0.57s-0.25,0.27-0.46,0.34
			c-0.21,0.07-0.44,0.03-0.71-0.1c-0.12-0.08-0.24-0.16-0.36-0.24s-0.25-0.16-0.38-0.24c-0.12-0.11-0.2-0.21-0.24-0.3
			s-0.07-0.23-0.1-0.4V44.73c0.05-0.25,0.16-0.44,0.31-0.58c0.15-0.13,0.31-0.2,0.48-0.21c0.17-0.01,0.33,0.05,0.49,0.17
			c0.16,0.12,0.28,0.31,0.36,0.56v10.7c0.04,0.03,0.08,0.06,0.13,0.09C124.38,55.49,124.43,55.52,124.48,55.55z"/>
		<path class="st4" d="M136.15,54.17c0.28-0.11,0.52-0.12,0.72-0.04c0.2,0.08,0.34,0.21,0.43,0.38c0.09,0.17,0.1,0.36,0.04,0.58
			c-0.06,0.21-0.22,0.39-0.47,0.54c-0.44,0.25-0.91,0.48-1.41,0.7c-0.5,0.21-1.01,0.36-1.53,0.44c-0.52,0.08-1.03,0.08-1.53-0.01
			c-0.5-0.09-0.99-0.29-1.45-0.61c-0.56-0.38-0.98-0.91-1.27-1.56c-0.29-0.66-0.44-1.34-0.46-2.05c-0.01-0.71,0.12-1.39,0.39-2.05
			c0.27-0.66,0.7-1.18,1.28-1.58c0.61-0.41,1.27-0.72,1.99-0.92s1.44-0.23,2.17-0.07c0.36,0.08,0.68,0.25,0.97,0.51
			c0.29,0.26,0.53,0.56,0.71,0.9c0.18,0.34,0.28,0.7,0.29,1.07c0.01,0.38-0.08,0.73-0.28,1.06c-0.23,0.37-0.55,0.69-0.97,0.94
			c-0.42,0.26-0.88,0.48-1.38,0.66c-0.5,0.18-1,0.33-1.49,0.45c-0.5,0.12-0.93,0.23-1.3,0.34c-0.16,0.04-0.31,0.05-0.46,0.02
			c0.2,0.42,0.49,0.77,0.88,1.04c0.39,0.27,0.88,0.39,1.46,0.35c0.46-0.03,0.93-0.16,1.4-0.39
			C135.34,54.63,135.76,54.4,136.15,54.17z M132.27,49.94c-0.49,0.25-0.86,0.61-1.09,1.06c-0.24,0.46-0.36,0.94-0.36,1.44
			c0.09-0.07,0.19-0.12,0.3-0.16c0.24-0.07,0.48-0.14,0.73-0.21s0.49-0.14,0.75-0.21c0.16-0.04,0.37-0.1,0.65-0.18
			c0.27-0.08,0.55-0.17,0.84-0.28c0.29-0.11,0.56-0.23,0.8-0.37c0.24-0.14,0.4-0.29,0.48-0.47c0.03-0.44-0.08-0.74-0.32-0.9
			c-0.24-0.16-0.52-0.24-0.86-0.24s-0.68,0.06-1.03,0.17S132.49,49.83,132.27,49.94z"/>
	</g>
	<circle class="st5" cx="75.94" cy="49.42" r="24"/>
	<path d="M55.14,93.41c-3.42,4.42-9.77,5.23-14.19,1.82s-5.23-9.77-1.82-14.19s23.82-14.26,23.82-14.26S58.56,88.99,55.14,93.41z"/>
</g>
</svg>
